<svg width="200" height="137" viewBox="0 0 200 137" fill="none" xmlns="http://www.w3.org/2000/svg">
<path fill-rule="evenodd" clip-rule="evenodd" d="M98.6723 1.24481C102.527 1.00534 106.123 1.83522 109.461 3.73443C110.552 3.13407 111.714 2.71913 112.946 2.48962C118.257 2.37897 123.569 2.37897 128.88 2.48962C134.532 3.60585 137.631 7.03601 138.174 12.7801C138.128 13.6962 138.045 14.6091 137.925 15.5187C137.141 17.994 136.256 20.4284 135.27 22.8216C135.131 23.2068 135.076 23.5942 135.104 23.9834C136.398 24.5197 137.615 25.1836 138.755 25.9751C142.64 23.7917 146.817 22.8788 151.286 23.2365C158.961 24.6046 163.747 29.0584 165.643 36.5975C166.745 43.2956 165.168 49.2707 160.913 54.5228C160.968 54.5781 161.024 54.6335 161.079 54.6888C167.253 52.9719 173.449 51.3399 179.668 49.7925C184.928 49.4752 188.719 51.6606 191.037 56.3485C192.918 62.6089 191.009 67.284 185.311 70.3734C143.309 88.3618 101.317 106.287 59.3362 124.149C53.4354 126.482 47.3496 128.142 41.0789 129.129C36.5433 129.679 32.0067 129.679 27.469 129.129C17.9913 127.446 10.9927 122.384 6.47311 113.942C4.00018 108.378 3.17031 102.569 3.98348 96.5145C5.24083 89.079 7.84111 82.1635 11.7843 75.7676C17.5707 66.8785 24.2373 58.6627 31.7843 51.1203C33.659 49.5751 35.8167 48.7729 38.2573 48.7137C38.2449 47.9839 38.3279 47.2647 38.5063 46.556C40.182 40.6865 42.893 35.3753 46.6391 30.6224C49.2834 27.4783 52.5199 25.1824 56.3486 23.7344C60.5762 22.44 64.6426 22.7997 68.5478 24.8133C73.3043 22.6023 78.1453 22.4088 83.0706 24.2324C84.6826 24.9826 86.1211 25.9784 87.386 27.2199C87.5744 27.3442 87.7403 27.3167 87.8839 27.1369C84.6756 22.281 83.9841 17.0805 85.8092 11.5353C88.2509 5.80225 92.5385 2.37209 98.6723 1.24481Z" fill="#FEFDFD"/>
<path fill-rule="evenodd" clip-rule="evenodd" d="M99.502 12.0332C102.601 11.7145 104.731 12.987 105.892 15.8506C106.419 20.7456 104.233 23.0417 99.3361 22.7386C95.8322 21.1388 94.7533 18.5109 96.0996 14.8548C96.8732 13.461 98.0074 12.5205 99.502 12.0332Z" fill="#1B213A"/>
<path fill-rule="evenodd" clip-rule="evenodd" d="M127.386 13.195C123.181 13.195 118.976 13.195 114.772 13.195C114.772 13.693 114.772 14.1909 114.772 14.6888C114.986 14.6494 115.152 14.7047 115.27 14.8548C115.048 14.8548 114.827 14.8548 114.606 14.8548C114.606 14.2462 114.606 13.6376 114.606 13.0291C118.894 12.9741 123.154 13.0294 127.386 13.195Z" fill="#999BA7"/>
<path fill-rule="evenodd" clip-rule="evenodd" d="M127.386 13.195C124.118 21.9202 120.937 30.6616 117.842 39.4191C120.25 36.7902 123.155 34.9369 126.556 33.8589C132.928 33.066 134.948 35.6941 132.614 41.7427C130.818 45.8609 127.913 48.9314 123.9 50.9543C121.672 52.1519 119.348 53.12 116.929 53.8589C117.575 58.3359 118.211 62.8172 118.838 67.3029C119.024 67.5724 119.272 67.7384 119.585 67.8008C120.12 67.6873 120.618 67.4936 121.079 67.2199C123.878 64.7841 126.782 62.4879 129.792 60.3319C131.093 52.5326 134.191 45.5616 139.087 39.4191C141.386 36.7303 144.235 34.9321 147.635 34.0249C151.462 33.5178 153.979 35.0946 155.187 38.7552C155.566 41.5042 155.013 44.0493 153.527 46.39C149.311 52.0697 143.75 55.7211 136.846 57.3444C136.249 59.714 135.862 62.1206 135.685 64.5643C135.672 65.6624 135.81 66.7412 136.1 67.8008C136.641 69.5796 137.83 70.2712 139.668 69.8755C141.45 69.2466 142.972 68.2231 144.232 66.805C146.22 64.4015 147.908 61.8013 149.295 59.0041C149.885 59.7982 150.245 60.6833 150.373 61.6597C149.275 64.6332 147.754 67.3441 145.809 69.7925C141.437 70.9328 137.067 72.0946 132.697 73.278C131.021 71.5842 130.053 69.5372 129.792 67.1369C129.764 66.1915 129.681 65.2511 129.544 64.3153C125.584 67.4728 121.6 70.5987 117.593 73.6929C116.45 74.1618 115.288 74.2171 114.108 73.8589C113.258 73.0722 112.732 72.104 112.531 70.9543C112.19 66.7298 111.692 62.5251 111.037 58.3402C109.144 63.2333 107.346 68.1572 105.643 73.112C103.027 73.3316 100.426 73.3316 97.8423 73.112C104.516 54.8996 111.182 36.6976 117.842 18.5062C118.247 16.3945 117.39 15.1773 115.27 14.8548C115.152 14.7047 114.986 14.6494 114.772 14.6888C114.772 14.1909 114.772 13.6929 114.772 13.195C118.976 13.195 123.181 13.195 127.386 13.195Z" fill="#1B213A"/>
<path fill-rule="evenodd" clip-rule="evenodd" d="M53.0291 73.278C50.455 73.3328 47.9101 73.2773 45.3943 73.112C49.2326 62.4825 53.1055 51.8601 57.0125 41.2448C56.9715 40.8163 56.7503 40.678 56.3486 40.8299C55.6018 41.3555 54.9656 41.9917 54.4399 42.7386C52.7906 45.4838 51.4076 48.3608 50.2906 51.3693C49.7795 50.7346 49.3093 50.0707 48.8798 49.3776C50.1847 44.8307 52.3146 40.7368 55.2698 37.0954C56.7481 35.3387 58.6016 34.2046 60.83 33.6929C62.3433 33.4392 63.3669 34.0201 63.9005 35.4357C64.2223 36.5175 64.3606 37.6239 64.3154 38.7552C64.2522 40.8254 64.0585 42.8724 63.7345 44.8963C65.9307 40.8744 68.8905 37.5273 72.6142 34.8548C74.7515 33.4581 76.9646 33.2921 79.2532 34.3568C80.8436 35.8838 81.369 37.7373 80.83 39.917C77.5676 48.2108 74.4693 56.5648 71.5354 64.9792C71.4247 65.2559 71.4247 65.5324 71.5354 65.8091C73.0444 64.19 74.4275 62.475 75.6847 60.6639C80.8119 53.2133 86.0676 45.8551 91.4524 38.5892C92.8972 36.8659 94.5846 35.4551 96.5146 34.3568C98.9181 33.3145 100.772 33.8954 102.075 36.0996C102.219 37.4933 102.164 38.8763 101.909 40.249C98.9744 48.2785 96.0421 56.3006 93.1121 64.3153C93.0296 64.7545 93.0019 65.1972 93.0291 65.6432C93.3292 65.6446 93.6059 65.5617 93.859 65.3942C95.7393 63.4294 97.3991 61.2994 98.8383 59.0041C99.1923 59.2682 99.4688 59.6002 99.6681 60C97.7923 64.0581 95.3579 67.7371 92.3652 71.0373C90.5427 72.7514 88.385 73.4705 85.8922 73.195C84.333 72.3729 83.6691 71.0729 83.9005 69.2946C83.8919 68.6163 83.9749 67.9524 84.1495 67.3029C86.9279 59.6415 89.8047 52.0066 92.7802 44.3983C93.0934 43.5052 93.3423 42.5924 93.5271 41.6597C93.4718 41.5215 93.4163 41.3831 93.3611 41.2448C87.6517 48.9545 81.9808 56.7001 76.3486 64.4813C74.7996 66.473 73.2504 68.4647 71.7013 70.4564C70.4695 71.6888 69.0587 72.6571 67.469 73.361C64.7149 74.1812 63.0276 73.2131 62.4067 70.4564C62.296 69.7373 62.296 69.0179 62.4067 68.2988C65.9189 59.2853 69.2384 50.2119 72.3652 41.0788C72.4759 40.7469 72.4759 40.4149 72.3652 40.083C72.2449 39.9902 72.1066 39.9349 71.9503 39.917C71.0992 40.2596 70.3246 40.73 69.6266 41.3278C66.6585 44.0724 64.1966 47.1982 62.2408 50.7054C61.2102 52.5454 60.2696 54.4264 59.4192 56.3485C57.3387 62.0191 55.2086 67.6622 53.0291 73.278Z" fill="#1B213A"/>
<path fill-rule="evenodd" clip-rule="evenodd" d="M147.801 38.4232C149.657 38.0199 150.653 38.7391 150.788 40.5809C150.449 42.6767 149.703 44.6131 148.548 46.39C145.993 50.1341 142.591 52.7897 138.34 54.3568C138.23 54.3016 138.119 54.2461 138.008 54.1909C139.579 49.4996 141.765 45.129 144.564 41.0788C145.482 39.9651 146.56 39.0798 147.801 38.4232Z" fill="#FBFBFC"/>
<path fill-rule="evenodd" clip-rule="evenodd" d="M122.739 39.5851C127.794 39.2382 128.984 41.2299 126.307 45.5602C125.837 46.1411 125.366 46.722 124.896 47.3029C122.53 48.9012 120.04 50.2843 117.427 51.4523C116.138 51.8934 114.81 52.1424 113.444 52.1992C114.047 48.8113 115.402 45.7683 117.51 43.0705C118.975 41.4639 120.717 40.3021 122.739 39.5851Z" fill="#FCFCFC"/>
<path fill-rule="evenodd" clip-rule="evenodd" d="M132.697 73.278C137.067 72.0946 141.438 70.9328 145.809 69.7925C157.529 66.6319 169.258 63.5613 180.996 60.5809C139.594 78.3117 98.1553 96.0158 56.6806 113.693C50.0316 116.461 43.1159 118.176 35.9337 118.838C30.348 119.336 25.258 118.008 20.664 114.855C15.3188 110.006 13.3548 104.003 14.7719 96.8465C16.0712 91.0407 18.2842 85.6187 21.4109 80.5809C26.425 73.1293 32.0681 66.1583 38.3403 59.6681C36.0844 63.5756 34.314 67.725 33.0291 72.1162C31.5452 77.0664 31.8771 81.8797 34.025 86.556C36.4574 90.636 40.0258 93.0426 44.7304 93.7759C49.7098 94.2904 54.6338 93.9585 59.5022 92.7801C83.9272 86.2866 108.326 79.7859 132.697 73.278Z" fill="#FB1511"/>
<path fill-rule="evenodd" clip-rule="evenodd" d="M45.3942 73.112C47.9101 73.2773 50.455 73.3328 53.0291 73.278C50.4556 73.4982 47.8553 73.4982 45.2283 73.278C45.2489 73.1773 45.3041 73.122 45.3942 73.112Z" fill="#A4A6B0"/>
<path fill-rule="evenodd" clip-rule="evenodd" d="M97.8424 73.112C100.426 73.3316 103.027 73.3316 105.643 73.112C104.375 73.3329 103.048 73.4436 101.66 73.444C100.332 73.3887 99.0042 73.3333 97.6764 73.278C97.697 73.1773 97.7522 73.122 97.8424 73.112Z" fill="#A4A6B0"/>
</svg>
